<svg width="100" height="100" viewBox="0 0 100 100" fill="none" xmlns="http://www.w3.org/2000/svg">
<rect width="100" height="100" fill="white"/>
<rect y="50" width="100" height="50" fill="#1A1F71"/>
<path d="M22.64 79.488L23.136 77.488C23.776 77.824 24.8 78.16 25.84 78.16C26.96 78.16 27.552 77.696 27.552 76.992C27.552 76.32 27.04 75.936 25.744 75.488C23.952 74.848 22.768 73.856 22.768 72.288C22.768 70.448 24.32 69.056 26.848 69.056C28.08 69.056 28.96 69.296 29.6 69.6L29.056 71.552C28.64 71.344 27.856 71.04 26.816 71.04C25.76 71.04 25.248 71.536 25.248 72.08C25.248 72.768 25.84 73.072 27.248 73.6C29.152 74.304 30.032 75.296 30.032 76.816C30.032 78.624 28.656 80.16 25.696 80.16C24.464 80.16 23.248 79.824 22.64 79.488ZM38.1126 73.456V75.44H34.1446V78H38.5766V80H31.7126V69.216H38.3526V71.216H34.1446V73.456H38.1126ZM47.7955 77.792L48.1475 79.712C47.7155 79.92 46.6915 80.176 45.3955 80.176C41.6675 80.176 39.7475 77.84 39.7475 74.768C39.7475 71.088 42.3715 69.056 45.6355 69.056C46.8995 69.056 47.8595 69.296 48.2915 69.536L47.7795 71.456C47.2995 71.248 46.6115 71.056 45.7315 71.056C43.8115 71.056 42.3075 72.224 42.3075 74.624C42.3075 76.784 43.5875 78.144 45.7475 78.144C46.4995 78.144 47.2995 78 47.7955 77.792ZM49.7591 69.216H52.1911V75.408C52.1911 77.28 52.9111 78.224 54.1431 78.224C55.4231 78.224 56.1271 77.328 56.1271 75.408V69.216H58.5591V75.264C58.5591 78.592 56.8791 80.176 54.0631 80.176C51.3431 80.176 49.7591 78.656 49.7591 75.232V69.216ZM60.6654 80V69.36C61.4494 69.232 62.6014 69.136 63.9134 69.136C65.5134 69.136 66.6334 69.376 67.4014 69.984C68.0574 70.496 68.4094 71.264 68.4094 72.256C68.4094 73.616 67.4334 74.56 66.5054 74.896V74.944C67.2574 75.248 67.6734 75.952 67.9454 76.944C68.2814 78.176 68.6014 79.584 68.8094 80H66.3134C66.1534 79.68 65.8814 78.816 65.5774 77.488C65.2734 76.128 64.8094 75.776 63.8014 75.76H63.0814V80H60.6654ZM63.0814 71.04V74H64.0414C65.2574 74 65.9774 73.392 65.9774 72.448C65.9774 71.472 65.3054 70.96 64.1854 70.96C63.5934 70.96 63.2574 70.992 63.0814 71.04ZM76.5658 73.456V75.44H72.5978V78H77.0298V80H70.1658V69.216H76.8058V71.216H72.5978V73.456H76.5658Z" fill="white"/>
<mask id="mask0_2_17" style="mask-type:luminance" maskUnits="userSpaceOnUse" x="13" y="15" width="72" height="23">
<path d="M49.998 22.2663C49.9572 25.4324 52.8658 27.1993 55.057 28.2497C57.3083 29.3276 58.0644 30.0187 58.0558 30.9825C58.0386 32.4577 56.2599 33.1087 54.5951 33.1341C51.6908 33.1784 50.0023 32.3626 48.6597 31.7455L47.6135 36.5622C48.9604 37.173 51.4545 37.7056 54.0409 37.7289C60.1116 37.7289 64.0836 34.7805 64.1051 30.2089C64.1287 24.4073 55.9485 24.0861 56.0043 21.4928C56.0236 20.7065 56.7862 19.8675 58.4575 19.654C59.2846 19.5462 61.5681 19.4638 64.1566 20.6368L65.1727 15.9764C63.7807 15.4777 61.9913 15 59.7636 15C54.0495 15 50.0302 17.9885 49.998 22.2663ZM74.9362 15.4016C73.8277 15.4016 72.8933 16.0377 72.4765 17.0142L63.8043 37.3865H69.8708L71.0781 34.1042H78.4914L79.1917 37.3865H84.5385L79.8727 15.4016H74.9362ZM75.7847 21.3406L77.5355 29.596H72.7407L75.7847 21.3406ZM42.6427 15.4016L37.8608 37.3865H43.6416L48.4213 15.4016H42.6427ZM34.0908 15.4016L28.0737 30.3653L25.6399 17.6419C25.3542 16.2216 24.2264 15.4016 22.974 15.4016H13.1375L13 16.0399C15.0193 16.471 17.3135 17.1664 18.7034 17.9103C19.5541 18.3647 19.7968 18.7621 20.0761 19.8421L24.6861 37.3865H30.7955L40.1615 15.4016H34.0908Z" fill="white"/>
</mask>
<g mask="url(#mask0_2_17)">
<path d="M5.50859 17.7145L75.9952 -7.82539L92.0306 35.0151L21.5447 60.555" fill="url(#paint0_linear_2_17)"/>
</g>
<defs>
<linearGradient id="paint0_linear_2_17" x1="19.4803" y1="37.038" x2="79.5348" y2="14.5583" gradientUnits="userSpaceOnUse">
<stop stop-color="#1A1F71"/>
</linearGradient>
</defs>
</svg>
